<svg width="1024" height="1024" xmlns="http://www.w3.org/2000/svg" class="icon">
    <title>Drawing</title>
    <g>
        <title>background</title>
        <rect fill="none" id="canvas_background" height="402" width="582" y="-1" x="-1"/>
    </g>

    <g>
        <title>Layer 1</title>
        <path id="svg_1" fill="#dfe6f0" d="m63.49999,514.18182a448,448 0 1 0 896,0a448,448 0 1 0 -896,0z"/>
        <line id="svg_2" stroke-width="5" stroke="black" y2="250" x2="880" y1="250" x1="140"/>
        <line id="svg_3" stroke-width="5" stroke="black" y2="250" x2="430" y1="70" x1="430"/>
        <line id="svg_4" stroke-width="5" stroke="black" y2="774" x2="880" y1="774" x1="140"/>
        <line id="svg_5" stroke-width="5" stroke="black" y2="860" x2="640" y1="860" x1="380"/>
        <line id="svg_6" stroke-width="5" stroke="black" y2="862" x2="640" y1="774" x1="640"/>
        <line id="svg_7" stroke-width="5" stroke="black" y2="940" x2="380" y1="858" x1="380"/>
        <path id="svg_8" fill="#444444"
              d="m512,950.85714c241.37143,0 438.85714,-197.48571 438.85714,-438.85714s-197.48571,-438.85714 -438.85714,-438.85714s-438.85714,197.48571 -438.85714,438.85714s197.48571,438.85714 438.85714,438.85714zm0,73.14286c-285.25714,0 -512,-226.74286 -512,-512s226.74286,-512 512,-512s512,226.74286 512,512s-226.74286,512 -512,512z"/>
        <g stroke="null" id="svg_14">
            <path stroke="null" id="svg_12" fill="#000000"
                  d="m347.76223,123.9684c0.18424,6.3886 1.53533,12.52542 3.77693,18.47342c2.67149,7.11243 6.63267,13.37514 12.12918,18.56784a-1.56605,1.60502 0 0 0 0.52202,1.47913c-0.18424,1.91973 -0.33778,3.83945 -0.52202,5.75918c-0.4606,4.46887 1.07474,8.11949 4.60602,10.7001c3.77694,2.76944 7.6767,5.35006 11.57646,7.96214a-3.63876,3.7293 0 0 1 5.74218,-2.83238c0.30706,-3.43033 0.58342,-6.86066 0.79837,-10.29099c0.09212,-1.73089 0.06142,-1.73089 1.68888,-1.95119c4.29895,-0.59795 7.67669,-2.67503 9.97971,-6.48301a-14.4629,14.8228 0 0 1 1.99594,-6.38859c0.06141,-0.69236 0.33777,-0.84972 0.95191,-0.88119c3.46987,-0.18882 6.97044,-0.40912 10.44031,-0.69236c2.88644,-0.22029 4.36036,-3.33591 2.79432,-5.948c-1.07474,-1.82531 -2.2416,-3.61915 -3.37775,-5.44446c-1.19757,-1.9512 -2.42584,-3.9024 -3.6234,-5.85359c-2.21089,-3.55621 -5.43511,-5.47594 -9.51911,-5.53888c-2.33372,0 -4.69814,0.40912 -7.03186,0.66089c-0.4606,0.03147 -0.76767,0 -1.07473,-0.37765c-5.43511,-6.23124 -12.1906,-10.44834 -19.83659,-13.28072c-4.32966,-1.60502 -8.75144,-2.64356 -13.29605,-3.11562c-2.30301,-0.25177 -4.60602,-0.31471 -6.90903,0.09441c-1.25897,0.25177 -1.32039,0.28324 -1.50463,1.54207c-0.18424,1.29031 -0.36848,2.54915 -0.30707,3.83945l0.00001,0zm13.1425,15.73546c-0.06141,-4.21711 3.34704,-7.83626 7.40034,-7.8992c4.20683,-0.06294 7.83023,3.05268 7.95306,7.96214c0.09212,4.05974 -3.53128,7.77331 -7.55387,7.80478c-4.26825,0.03147 -7.73811,-3.4618 -7.79953,-7.86773l0,0.00001z"/>
            <path stroke="null" id="svg_13" fill="#000000"
                  d="m406.10513,163.74763c-1.04403,0 -1.59675,0.47206 -1.96523,1.54207c-1.44322,4.2171 -4.084,7.42713 -7.89165,9.6301c-0.85979,0.47206 -1.71958,0.88118 -2.64078,1.19589c-1.65817,0.56648 -2.02665,2.23444 -0.79838,3.49327c1.8117,1.88826 3.65411,3.74504 5.46581,5.60182c0.61414,0.62942 1.25898,0.91266 2.08806,0.59795c0.85979,-0.31471 1.25898,-0.9756 1.3204,-1.88825c0.0307,-0.56648 0,-1.16443 0.0307,-1.7309c0.03071,-1.07002 0.03071,-1.07002 0.98262,-0.75531l6.11065,2.07708c0.61414,0.2203 1.19757,0.28324 1.781,-0.06294c0.85979,-0.50353 1.19756,-1.38472 0.82908,-2.4862c-0.67555,-2.14002 -1.3818,-4.28004 -2.08806,-6.42006c-0.30707,-0.91266 -0.27636,-0.94413 0.70626,-0.9756c0.58343,0 1.16685,0 1.78099,-0.03147c0.79838,0 1.53534,-0.50354 1.78099,-1.29031c0.30707,-0.81824 0.12283,-1.5106 -0.4606,-2.10855c-1.90382,-1.9512 -3.80764,-3.90239 -5.68075,-5.85359a-1.87312,1.91973 0 0 1 -1.3511,-0.53501l-0.00001,0.00001z"/>
        </g>
        <text stroke="null"
              transform="matrix(3.7239038944244385,0,0,2.2058207988739014,-749.9673519320786,-231.30630335211754) "
              xml:space="preserve" text-anchor="start" font-family="Helvetica, Arial, sans-serif" font-size="24"
              id="svg_15" y="211.39554" x="263" fill-opacity="null" stroke-opacity="null" stroke-width="0"
              fill="#000000">80%</text>
        <text transform="matrix(1.2948342177212435,0,0,1.3332130651474745,-138.27142061027277,-41.04880516566502) "
              stroke="null" xml:space="preserve" text-anchor="start" font-family="Junction, sans-serif" font-size="24"
              id="svg_16" y="126.99686" x="465.53226" fill-opacity="null" stroke-opacity="null" stroke-width="0"
              fill="#000000">空气优质</text>
        <text transform="matrix(1.4865108220925503,0,0,1.3332130651474743,-226.26098624292973,-39.71547179259525) "
              stroke="null" xml:space="preserve" text-anchor="start" font-family="Junction, sans-serif" font-size="24"
              id="svg_19" y="163.00011" x="464.51661" fill-opacity="null" stroke-opacity="null" stroke-width="0"
              fill="#000000">晴天</text>
        <text stroke="null"
              transform="matrix(1.4865108220925503,0,0,1.3332130651474743,-226.26098624292973,-39.71547179259525) "
              xml:space="preserve" text-anchor="start" font-family="Oswald, sans-serif" font-size="24" id="svg_21"
              y="200.00345" x="465.26976" fill-opacity="null" stroke-opacity="null" stroke-width="0"
              fill="#000000">25°C</text>
        <text stroke="null"
              transform="matrix(1.4865108220925503,0,0,1.3332130651474743,-226.26098624292973,-39.71547179259525) "
              xml:space="preserve" text-anchor="start" font-family="'League Gothic', sans-serif" font-size="24"
              id="svg_22" y="163.00011" x="540" fill-opacity="null" stroke-opacity="null" stroke-width="0"
              fill="#000000">26°</text>
        <text stroke="null"
              transform="matrix(1.4865108220925503,0,0,1.3332130651474743,-226.26098624292973,-39.71547179259525) "
              xml:space="preserve" text-anchor="start" font-family="'League Gothic', sans-serif" font-size="24"
              id="svg_23" y="201.00354" x="540" fill-opacity="null" stroke-opacity="null" stroke-width="0"
              fill="#000000">20°</text>
        <g stroke="null" id="svg_28">
            <path stroke="#000000" id="svg_27" fill="#000000"
                  d="m661.66546,209.1358l0.5,-0.8l-22.50008,0l1.25,2l9.12504,14.60004l0.875,1.4l0.875,-1.4l9.87504,-15.80004zm-2.50001,1.2l-8.25003,13.20004l-8.25003,-13.20004l16.50006,0z"/>
        </g>
        <g transform="rotate(180 650.9154663085938,165.6694641113281) " stroke="null" id="svg_30">
            <path stroke="#000000" id="svg_29" fill="#000000"
                  d="m661.66546,157.46957l0.5,-0.8l-22.50008,0l1.25,2l9.12504,14.60004l0.875,1.4l0.875,-1.4l9.87504,-15.80004zm-2.50001,1.2l-8.25003,13.20004l-8.25003,-13.20004l16.50006,0z"/>
        </g>
        <g stroke="null" id="svg_48">
            <path stroke="null" id="svg_39" fill="#000000"
                  d="m720.26825,193.65014m-20.44871,0a20.44871,20.44871 0 1 0 40.89742,0a20.44871,20.44871 0 1 0 -40.89742,0z"/>
            <path stroke="null" id="svg_40" fill="#000000"
                  d="m718.40221,159.43937m2.59172,0l0,0q2.59173,0 2.59173,2.59172l0,4.89836q0,2.59173 -2.59173,2.59173l0,0q-2.59172,0 -2.59172,-2.59173l0,-4.89836q0,-2.59172 2.59172,-2.59172z"/>
            <path stroke="null" id="svg_41" fill="#000000"
                  d="m742.73206,167.76704m1.86118,1.80361l0,0q1.86119,1.80362 0.05757,3.6648l-3.40883,3.51765q-1.80361,1.86118 -3.6648,0.05757l0,0q-1.86118,-1.80362 -0.05757,-3.6648l3.40883,-3.51765q1.80362,-1.86118 3.6648,-0.05757z"/>
            <path stroke="null" id="svg_42" fill="#000000"
                  d="m754.41657,190.70476m0.08096,2.59046l0,0q0.08096,2.59046 -2.50951,2.67141l-4.89597,0.15301q-2.59046,0.08096 -2.67141,-2.5095l0,0q-0.08096,-2.59046 2.5095,-2.67142l4.89597,-0.15301q2.59046,-0.08095 2.67142,2.50951z"/>
            <path stroke="null" id="svg_43" fill="#000000"
                  d="m746.82772,215.25574m-1.74459,1.91662l0,0q-1.7446,1.91662 -3.66122,0.17202l-3.6224,-3.29729q-1.91662,-1.7446 -0.17202,-3.66122l0,0q1.7446,-1.91661 3.66121,-0.17201l3.62241,3.29729q1.91661,1.74459 0.17202,3.66121z"/>
            <path stroke="null" id="svg_44" fill="#000000"
                  d="m724.32656,227.6667m-2.58664,0.16228l0,0q-2.58664,0.16228 -2.74892,-2.42436l-0.30672,-4.88874q-0.16228,-2.58664 2.42436,-2.74893l0,0q2.58664,-0.16228 2.74892,2.42436l0.30672,4.88875q0.16228,2.58663 -2.42436,2.74892z"/>
            <path stroke="null" id="svg_45" fill="#000000"
                  d="m699.49126,220.86857m-1.97047,-1.68354l0,0q-1.97046,-1.68353 -0.28693,-3.654l3.18188,-3.72419q1.68354,-1.97047 3.654,-0.28694l0,0q1.97047,1.68354 0.28694,3.65401l-3.18188,3.72419q-1.68354,1.97046 -3.65401,0.28693z"/>
            <path stroke="null" id="svg_46" fill="#000000"
                  d="m686.42706,198.73966m-0.243,-2.58031l0,0q-0.243,-2.58031 2.3373,-2.82331l4.87679,-0.45927q2.5803,-0.243 2.82331,2.3373l0,0q0.243,2.58031 -2.33731,2.82331l-4.87678,0.45928q-2.58031,0.243 -2.82331,-2.33731z"/>
            <path stroke="null" id="svg_47" fill="#000000"
                  d="m692.42341,173.70705m1.62117,-2.0221l0,0q1.62116,-2.02209 3.64325,-0.40093l3.82176,3.064q2.0221,1.62116 0.40094,3.64325l0,0q-1.62117,2.0221 -3.64326,0.40094l-3.82176,-3.064q-2.0221,-1.62116 -0.40093,-3.64326z"/>
        </g>
        <g stroke="null" id="svg_53">
            <path stroke="null" id="svg_52"
                  d="m221.30507,700.06147c-6.11453,0 -11.4287,3.86458 -14.12404,9.53881c-2.69533,-5.67423 -8.0095,-9.53881 -14.12404,-9.53881c-8.83929,0 -16.00724,8.07385 -16.00724,18.03028c0,0.71591 0.02942,1.41856 0.08827,2.12121c0.12359,1.43844 0.36487,2.857 0.71798,4.24242c4.7904,19.06437 29.32503,32.87875 29.32503,32.87875s24.53464,-13.81438 29.32504,-32.87875c0.34722,-1.38542 0.59439,-2.80398 0.71797,-4.24242c0.05885,-0.70265 0.08828,-1.41193 0.08828,-2.12121c0,-9.95643 -7.16795,-18.03028 -16.00725,-18.03028zm9.86918,24.39391l-7.89181,0l-7.7388,13.68843l-4.79629,-9.72442l-9.79855,15.45168l-7.36804,-23.85698l-2.25396,4.44129l-8.13898,0c-0.85333,0 -1.59484,-0.64962 -1.8067,-1.57765c-0.00588,-0.01326 -0.00588,-0.02652 -0.01177,-0.03978c-0.30602,-1.32575 0.5885,-2.61836 1.8067,-2.61836l5.96152,0l5.27886,-10.40719l7.6976,24.92422l9.03351,-14.24525l4.61973,9.36646l5.44364,-9.64487l9.97511,0c1.21819,0 2.11272,1.29261 1.8067,2.61837c-0.00589,0.01325 -0.00589,0.02651 -0.01177,0.03977c-0.21186,0.93466 -0.95338,1.58428 -1.8067,1.58428z"/>
        </g>
        <text stroke="null"
              transform="matrix(1.634850922826632,0,0,1.7660549036073723,-115.21762819937389,-480.97612930064446) "
              font-weight="normal" xml:space="preserve" text-anchor="start" font-family="Oswald, sans-serif"
              font-size="24" id="svg_54" y="660" x="160" fill-opacity="null" stroke-opacity="null" stroke-width="0"
              fill="#000000">80-128</text>
        <text stroke="null"
              transform="matrix(3.7239038944244385,0,0,2.2058207988739014,-749.9673519320786,-231.30630335211754) "
              xml:space="preserve" text-anchor="start" font-family="'Helvetica', Arial, sans-serif" font-size="18"
              id="svg_55" y="442" x="268" fill-opacity="null" stroke-opacity="null" stroke-width="0"
              fill="#000000">93</text>
        <g stroke="null" id="svg_74">
            <path stroke="null" id="svg_73" fill="#2c2c2c"
                  d="m692.15828,742.02308l-10.56839,-21.90502a3.41727,4.50918 0 0 0 -4.48409,-1.55647a2.89254,3.81678 0 0 0 -1.06681,5.44764l8.87276,18.01385l-11.813,0l-7.17281,-14.13412a3.49533,4.61219 0 0 0 -4.54046,-1.51069a2.90121,3.82823 0 0 0 -1.07549,5.45909l4.97847,10.18572l-22.33803,0c-3.00096,0 -5.43381,-3.21022 -5.43381,-7.17006c0,0 0,-7.82241 7.80595,-12.38309c7.80595,-4.56069 36.2413,-21.50446 37.35581,-21.50446c0.55943,-0.65234 5.57692,-2.60938 8.36538,2.60937c2.78846,5.20731 6.13201,7.81669 11.1495,7.81669c1.301,0 2.77112,-0.45779 4.42338,-1.36192a6.47027,8.53769 0 0 1 8.95949,7.87963l0,12.38881a8.88578,11.72502 0 0 1 -8.88577,11.72502l-14.52774,0l-0.00434,0l0,0.00001zm20.7725,3.49061l-72.76448,0a2.64969,3.49633 0 1 0 0,6.99839l72.76015,0a2.64969,3.49633 0 1 0 0,-6.99267l0.00433,-0.00572z"/>
        </g>
        <text stroke="null"
              transform="matrix(3.7239038944244385,0,0,2.2058207988739014,-749.9673519320786,-231.30630335211754) "
              xml:space="preserve" text-anchor="start" font-family="'Helvetica', Arial, sans-serif" font-size="18"
              id="svg_75" y="442" x="395" fill-opacity="null" stroke-opacity="null" stroke-width="0"
              fill="#000000">6723</text>
        <text stroke="null"
              transform="matrix(2.4970326925934194,0,0,2.4970326925934194,-484.85180817358344,-1218.0713407564097) "
              xml:space="preserve" text-anchor="start" font-family="Junction, sans-serif" font-size="20" id="svg_76"
              y="822" x="292.2898" fill-opacity="null" stroke-opacity="null" stroke-width="0" fill="#000000">睡眠</text>
        <text stroke="null"
              transform="matrix(2.4970326925934194,0,0,2.4970326925934194,-484.85180817358344,-1218.0713407564097) "
              xml:space="preserve" text-anchor="start" font-family="Junction, sans-serif" font-size="20" id="svg_77"
              y="822" x="460.83875" fill-opacity="null" stroke-opacity="null" stroke-width="0"
              fill="#000000">距离</text>
        <text transform="matrix(2.4970326925934194,0,0,2.4970326925934194,-484.85180817358344,-1218.0713407564097) "
              font-weight="bold" stroke="null" xml:space="preserve" text-anchor="start"
              font-family="Helvetica, Arial, sans-serif" font-size="24" id="svg_78" y="821.61895" x="349.35563"
              fill-opacity="null" stroke-opacity="null" stroke-width="0" fill="#000000">7h30m</text>
        <text transform="matrix(2.4970326925934194,0,0,2.4970326925934194,-484.85180817358344,-1218.0713407564097) "
              font-weight="bold" stroke="null" xml:space="preserve" text-anchor="start"
              font-family="Helvetica, Arial, sans-serif" font-size="24" id="svg_79" y="855.39839" x="366.76771"
              fill-opacity="null" stroke-opacity="null" stroke-width="0" fill="#000000">8.66km</text>
        <rect fill="#dfe6f0" x="404.99997" y="871.33333" width="227.99999" height="60" id="svg_11"/>
        <path id="svg_9" d="m411.99997,873.33333" opacity="NaN" stroke-width="0" stroke="null" fill="#000000"/>
        <text font-weight="bold" fill="#000000" stroke-width="0" x="445.35104" y="918.89216" id="svg_17" font-size="24"
              font-family="'Syne'" text-anchor="start" xml:space="preserve" stroke="null"
              transform="rotate(0.112641 496.928 900.435) matrix(1.9284 0 0 1.98196 -458.611 -905.228)">F.LuVx</text>
    </g>
</svg>